<svg width="56" height="56" viewBox="0 0 56 56" fill="none" xmlns="http://www.w3.org/2000/svg">
<path d="M11.6667 49C10.429 49 9.242 48.5083 8.36683 47.6332C7.49167 46.758 7 45.571 7 44.3333V11.6667C7 10.429 7.49167 9.242 8.36683 8.36683C9.242 7.49167 10.429 7 11.6667 7H44.3333C45.571 7 46.758 7.49167 47.6332 8.36683C48.5083 9.242 49 10.429 49 11.6667V44.3333C49 45.571 48.5083 46.758 47.6332 47.6332C46.758 48.5083 45.571 49 44.3333 49H11.6667ZM14 30.3333H33.8333L25.6667 38.5L28.98 41.8133L42.7933 28L28.98 14.1867L25.6667 17.5L33.8333 25.6667H14V30.3333Z" fill="#F5F5F5"/>
</svg>
