<svg width="32" height="32" viewBox="0 0 32 32" fill="none" xmlns="http://www.w3.org/2000/svg">
<path d="M16 11.6667C14.8507 11.6667 13.7485 12.1232 12.9359 12.9359C12.1232 13.7485 11.6667 14.8507 11.6667 16C11.6667 17.1493 12.1232 18.2515 12.9359 19.0641C13.7485 19.8768 14.8507 20.3334 16 20.3334C17.1493 20.3334 18.2515 19.8768 19.0641 19.0641C19.8768 18.2515 20.3334 17.1493 20.3334 16C20.3334 14.8507 19.8768 13.7485 19.0641 12.9359C18.2515 12.1232 17.1493 11.6667 16 11.6667Z" fill="#D9D9D9"/>
<path fill-rule="evenodd" clip-rule="evenodd" d="M9.17249 4.37655C13.7103 3.8744 18.2898 3.8744 22.8276 4.37655C25.3066 4.65285 27.3053 6.60126 27.5964 9.08532C28.1345 13.6789 28.1345 18.3195 27.5964 22.9132C27.3053 25.3972 25.3066 27.3456 22.8289 27.6232C18.2906 28.1255 13.7107 28.1255 9.17249 27.6232C6.69342 27.3456 4.69477 25.3972 4.40365 22.9145C3.86545 18.3204 3.86545 13.6794 4.40365 9.08532C4.69477 6.60126 6.69342 4.65285 9.17249 4.37655ZM22.5273 8.17954C22.1811 8.17954 21.849 8.31685 21.6042 8.56126C21.3594 8.80567 21.2219 9.13717 21.2219 9.48282C21.2219 9.82847 21.3594 10.16 21.6042 10.4044C21.849 10.6488 22.1811 10.7861 22.5273 10.7861C22.8735 10.7861 23.2056 10.6488 23.4504 10.4044C23.6952 10.16 23.8328 9.82847 23.8328 9.48282C23.8328 9.13717 23.6952 8.80567 23.4504 8.56126C23.2056 8.31685 22.8735 8.17954 22.5273 8.17954ZM9.79911 15.9992C9.79911 14.3574 10.4524 12.7828 11.6153 11.6218C12.7782 10.4609 14.3554 9.80864 16 9.80864C17.6446 9.80864 19.2218 10.4609 20.3847 11.6218C21.5476 12.7828 22.201 14.3574 22.201 15.9992C22.201 17.6411 21.5476 19.2157 20.3847 20.3766C19.2218 21.5376 17.6446 22.1898 16 22.1898C14.3554 22.1898 12.7782 21.5376 11.6153 20.3766C10.4524 19.2157 9.79911 17.6411 9.79911 15.9992Z" fill="#D9D9D9"/>
</svg>
