<svg width="27" height="27" viewBox="0 0 27 27" fill="none" xmlns="http://www.w3.org/2000/svg">
<rect x="0.5" y="0.5" width="26" height="26" rx="7.5" fill="#C46A2B"/>
<rect x="0.5" y="0.5" width="26" height="26" rx="7.5" stroke="#DEE2EB"/>
<path fill-rule="evenodd" clip-rule="evenodd" d="M7.66663 8.66667C7.66663 8.48986 7.73686 8.32029 7.86189 8.19526C7.98691 8.07024 8.15648 8 8.33329 8H9.33329C9.48649 8 9.63502 8.05276 9.75389 8.1494C9.87275 8.24605 9.95471 8.38069 9.98596 8.53067L10.2926 10H17.6666C17.7657 10 17.8636 10.0221 17.953 10.0647C18.0425 10.1072 18.1214 10.1692 18.1839 10.2461C18.2464 10.323 18.291 10.4128 18.3144 10.5091C18.3378 10.6054 18.3395 10.7057 18.3193 10.8027L17.486 14.8027C17.4547 14.9526 17.3728 15.0873 17.2539 15.1839C17.135 15.2806 16.9865 15.3333 16.8333 15.3333H11.4033L11.542 16H16.3333C16.7578 16.0002 17.1712 16.1355 17.5137 16.3863C17.8563 16.6371 18.1101 16.9903 18.2385 17.3949C18.367 17.7996 18.3633 18.2345 18.2281 18.6369C18.0929 19.0393 17.8332 19.3883 17.4865 19.6333C17.1398 19.8783 16.7242 20.0066 16.2998 19.9997C15.8753 19.9928 15.4641 19.8511 15.1255 19.5949C14.787 19.3388 14.5387 18.9816 14.4167 18.575C14.2946 18.1684 14.3051 17.7336 14.4466 17.3333H12.8866C13.0164 17.7011 13.0358 18.0989 12.9424 18.4775C12.8491 18.8562 12.647 19.1994 12.3612 19.4647C12.0753 19.73 11.7181 19.906 11.3335 19.9709C10.9489 20.0358 10.5538 19.9869 10.1966 19.8301C9.8395 19.6733 9.53601 19.4155 9.32351 19.0885C9.111 18.7614 8.99877 18.3794 9.00061 17.9894C9.00245 17.5993 9.11829 17.2184 9.33387 16.8933C9.54945 16.5683 9.85537 16.3134 10.214 16.16L8.79063 9.33333H8.33329C8.15648 9.33333 7.98691 9.2631 7.86189 9.13807C7.73686 9.01305 7.66663 8.84348 7.66663 8.66667Z" fill="#DEE2EB"/>
</svg>
