<svg width="32" height="32" viewBox="0 0 32 32" fill="none" xmlns="http://www.w3.org/2000/svg">
<path d="M24.4604 3.99988H7.53787C5.59204 3.99988 4 5.59192 4 7.53774V24.462C4 26.4078 5.59204 27.9999 7.53787 27.9999H24.4621C26.408 27.9999 28 26.4078 28 24.462V7.53774C27.9982 5.59192 26.408 3.99988 24.4604 3.99988ZM24.2331 16.8096H21.3851V27.1136H17.1237V16.8096H14.9921V13.2576H17.1237V11.126C17.1237 8.22851 18.3266 6.50469 21.7495 6.50469H24.5948V10.0558H22.8153C21.485 10.0558 21.3966 10.5538 21.3966 11.4798L21.3851 13.2576H24.609L24.2331 16.8096Z" fill="#D9D9D9"/>
</svg>
