<svg width="32" height="32" viewBox="0 0 32 32" fill="none" xmlns="http://www.w3.org/2000/svg">
<path d="M27.988 9.45661C27.978 8.94176 27.9367 8.42798 27.8644 7.91813C27.7782 7.46463 27.6317 7.02471 27.4288 6.61007C26.9846 5.73319 26.2726 5.02068 25.396 4.57597C24.984 4.37401 24.547 4.22792 24.0964 4.14155C23.5827 4.06772 23.0649 4.02564 22.546 4.01554C22.3264 4.00714 22.042 4.00354 21.91 4.00354L10.0924 3.99994C9.9604 3.99994 9.676 4.00354 9.4564 4.01194C8.94157 4.02186 8.42781 4.06314 7.918 4.13555C7.46452 4.22176 7.02462 4.36827 6.61 4.57117C5.73321 5.01543 5.02076 5.7275 4.576 6.60407C4.37411 7.01607 4.22802 7.45314 4.1416 7.90373C4.06744 8.41746 4.02496 8.93527 4.0144 9.45421C4.0072 9.67382 4.0024 9.95824 4.0024 10.0902L4 21.9084C4 22.0404 4.0036 22.3249 4.012 22.5445C4.02192 23.0593 4.0632 23.5731 4.1356 24.0829C4.22182 24.5364 4.36832 24.9764 4.5712 25.391C5.01544 26.2678 5.72747 26.9803 6.604 27.4251C7.01599 27.627 7.45303 27.7731 7.9036 27.8595C8.41732 27.9334 8.9351 27.9754 9.454 27.9855C9.6736 27.9939 9.958 27.9975 10.09 27.9975L21.9076 27.9999C22.0396 27.9999 22.324 27.9963 22.5436 27.9879C23.0584 27.978 23.5722 27.9367 24.082 27.8643C24.5355 27.7781 24.9754 27.6316 25.39 27.4287C26.2672 26.9847 26.9801 26.2726 27.4252 25.3958C27.6271 24.9838 27.7732 24.5467 27.8596 24.0961C27.9338 23.5824 27.9763 23.0646 27.9868 22.5457C27.994 22.3261 27.9988 22.0416 27.9988 21.9096L28 10.0926C28 9.96064 27.9964 9.67622 27.988 9.45661ZM16.2604 24.3494H16.2568C14.8284 24.3491 13.4228 23.991 12.1684 23.3077L7.6324 24.497L8.8468 20.0651C7.90654 18.4334 7.53085 16.5371 7.77796 14.6701C8.02507 12.8032 8.88119 11.0699 10.2136 9.73902C11.546 8.40816 13.2802 7.55406 15.1473 7.30916C17.0145 7.06426 18.9103 7.44223 20.5408 8.38447C22.1713 9.32671 23.4454 10.7806 24.1656 12.5207C24.8858 14.2608 25.0118 16.1899 24.5241 18.0089C24.0364 19.8279 22.9622 21.4351 21.4681 22.5815C19.9741 23.7279 18.1436 24.3493 16.2604 24.3494Z" fill="#D9D9D9"/>
<path d="M16.0025 9.00118C14.7518 9.00082 13.5238 9.33553 12.4463 9.97052C11.3688 10.6055 10.4811 11.5176 9.87546 12.6119C9.26984 13.7062 8.96844 14.9428 9.00261 16.193C9.03679 17.4433 9.40528 18.6616 10.0698 19.7212L10.2363 19.9857L9.52882 22.5677L12.1781 21.8732L12.4332 22.0244C13.5116 22.6631 14.742 23.0001 15.9954 23H15.999C17.8554 23.0003 19.636 22.2631 20.949 20.9506C22.2619 19.6381 22.9997 17.8577 23 16.0012C23.0003 14.1447 22.2631 12.3641 20.9506 11.0511C19.6381 9.73811 17.8578 9.00031 16.0013 9L16.0025 9.00118ZM20.1175 19.0054C19.9627 19.2611 19.7566 19.482 19.5123 19.6541C19.268 19.8263 18.9907 19.946 18.6978 20.0058C18.2556 20.0817 17.8019 20.0533 17.3726 19.9231C16.9655 19.7963 16.5653 19.648 16.1738 19.479C14.7207 18.7498 13.4821 17.6553 12.5796 16.303C12.0873 15.6769 11.7885 14.9208 11.7198 14.1273C11.7141 13.7998 11.7767 13.4747 11.9036 13.1727C12.0305 12.8707 12.2189 12.5985 12.4568 12.3733C12.5271 12.2931 12.6132 12.2283 12.7098 12.183C12.8063 12.1377 12.9112 12.1128 13.0178 12.1099C13.1572 12.1099 13.2978 12.1099 13.4206 12.117C13.5505 12.1229 13.723 12.0674 13.893 12.4784C14.0702 12.8989 14.4907 13.9348 14.5426 14.0399C14.576 14.095 14.5951 14.1576 14.5982 14.2219C14.6013 14.2863 14.5883 14.3504 14.5604 14.4084C14.5074 14.5348 14.4366 14.6529 14.3501 14.7592C14.2438 14.8821 14.1293 15.0332 14.0348 15.1277C13.9285 15.2329 13.8198 15.3462 13.9415 15.5565C14.2574 16.0975 14.6519 16.5887 15.1119 17.014C15.6111 17.4578 16.1839 17.8111 16.8045 18.0581C17.0147 18.1644 17.1375 18.1455 17.2604 18.005C17.3832 17.8644 17.786 17.3908 17.9265 17.1805C18.0671 16.9703 18.2065 17.0057 18.399 17.0754C18.5915 17.1451 19.6273 17.6542 19.8376 17.7605C20.0478 17.8668 20.1884 17.9176 20.2403 18.005C20.2979 18.3433 20.2552 18.6911 20.1175 19.0054Z" fill="#D9D9D9"/>
</svg>
