<svg width="60" height="60" viewBox="0 0 60 60" fill="none" xmlns="http://www.w3.org/2000/svg">
<path d="M53.5714 24.5455V2.72727C53.5714 2.00396 53.3457 1.31026 52.9438 0.7988C52.5419 0.287337 51.9969 0 51.4286 0H8.57143C8.00311 0 7.45806 0.287337 7.0562 0.7988C6.65434 1.31026 6.42857 2.00396 6.42857 2.72727V24.5455C4.72361 24.5455 3.08848 25.4075 1.88289 26.9419C0.677294 28.4762 0 30.5573 0 32.7273V60H4.82143V54.5455H55.1786V60H60V32.7273C60 30.5573 59.3227 28.4762 58.1171 26.9419C56.9115 25.4075 55.2764 24.5455 53.5714 24.5455ZM27.8571 24.5455H11.7857V19.0909C11.7857 18.3676 12.0115 17.6739 12.4133 17.1624C12.8152 16.651 13.3602 16.3636 13.9286 16.3636H25.7143C26.2826 16.3636 26.8277 16.651 27.2295 17.1624C27.6314 17.6739 27.8571 18.3676 27.8571 19.0909V24.5455ZM32.1429 19.0909C32.1429 18.3676 32.3686 17.6739 32.7705 17.1624C33.1723 16.651 33.7174 16.3636 34.2857 16.3636H46.0714C46.6397 16.3636 47.1848 16.651 47.5867 17.1624C47.9885 17.6739 48.2143 18.3676 48.2143 19.0909V24.5455H32.1429V19.0909Z" fill="#C46A2B"/>
</svg>
